<?xml version="1.0"?>
<svg xmlns="http://www.w3.org/2000/svg" xmlns:xlink="http://www.w3.org/1999/xlink" version="1.1" id="Layer_1" x="0px" y="0px" viewBox="0 0 512 512" style="enable-background:new 0 0 512 512;" xml:space="preserve" width="512px" height="512px"><g><g>
	<g>
		<g>
			<path d="M234.667,341.333c8.286,0,16.967-0.185,25.853-0.514c3.953-0.146,7.43-2.569,9.146-6.133     C292.073,288.177,339.681,256,394.667,256c20.563,0,40.563,4.552,59.417,13.531c3.313,1.552,7.167,1.333,10.271-0.615     c3.104-1.958,4.979-5.365,4.979-9.021v-57.177c0-8.346-8.951-13.277-16.121-9.007c-66.251,39.452-199.001,40.954-218.546,40.954     c-19.544,0-152.294-1.503-218.546-40.954C8.951,189.441,0,194.372,0,202.719v63.948C0,321.448,140.333,341.333,234.667,341.333z" data-original="#000000" class="active-path" data-old_color="#000000" fill="#FF3A46"/>
			<path d="M234.667,213.333c94.333,0,234.667-19.885,234.667-74.667V64c0-43.969-121.646-64-234.667-64S0,20.031,0,64v74.667     C0,193.448,140.333,213.333,234.667,213.333z M234.667,21.333c124.229,0,192,28.188,192,42.667s-67.771,42.667-192,42.667     s-192-28.188-192-42.667S110.438,21.333,234.667,21.333z" data-original="#000000" class="active-path" data-old_color="#000000" fill="#FF3A46"/>
			<path d="M256,394.667c0-6.751,0.538-13.37,1.517-19.848c0.992-6.563-4.148-12.427-10.784-12.29     c-5.52,0.115-9.656,0.138-12.066,0.138c-19.569,0-152.625-1.505-218.793-41.103C8.857,317.366,0,322.542,0,330.719v63.948     c0,49.021,118.063,74.667,234.667,74.667c8.583,0,17.021-0.167,25.354-0.438c3.604-0.104,6.896-2.021,8.771-5.083     c1.875-3.073,2.083-6.875,0.542-10.125C260.479,434.927,256,415.073,256,394.667z" data-original="#000000" class="active-path" data-old_color="#000000" fill="#FF3A46"/>
			<path d="M394.667,277.333c-64.688,0-117.333,52.635-117.333,117.333S329.979,512,394.667,512S512,459.365,512,394.667     S459.354,277.333,394.667,277.333z M437.333,405.333h-32v32c0,5.896-4.771,10.667-10.667,10.667S384,443.229,384,437.333v-32h-32     c-5.896,0-10.667-4.771-10.667-10.667S346.104,384,352,384h32v-32c0-5.896,4.771-10.667,10.667-10.667     s10.667,4.771,10.667,10.667v32h32c5.896,0,10.667,4.771,10.667,10.667S443.229,405.333,437.333,405.333z" data-original="#000000" class="active-path" data-old_color="#000000" fill="#FF3A46"/>
		</g>
	</g>
</g></g> </svg>
